<?xml version="1.0" standalone="no"?>
<!DOCTYPE svg PUBLIC "-//W3C//DTD SVG 20010904//EN"
 "http://www.w3.org/TR/2001/REC-SVG-20010904/DTD/svg10.dtd">
<svg version="1.0" xmlns="http://www.w3.org/2000/svg"
 width="560.000000pt" height="560.000000pt" viewBox="0 0 560.000000 560.000000"
 preserveAspectRatio="xMidYMid meet">
<metadata>
Created by potrace 1.11, written by Peter Selinger 2001-2013
</metadata>
<g transform="translate(0.000000,560.000000) scale(0.100000,-0.100000)"
fill="#000000" stroke="none">
<path d="M2764 5478 c-11 -5 -56 -68 -100 -139 -77 -125 -80 -129 -114 -129
-32 0 -45 10 -140 110 -96 100 -109 110 -141 110 -22 0 -42 -7 -52 -18 -9 -9
-39 -78 -67 -152 -29 -74 -53 -136 -55 -138 -1 -1 -16 -7 -33 -11 -28 -9 -40
-3 -146 75 -63 46 -126 86 -139 89 -30 8 -83 -17 -91 -42 -3 -10 -15 -78 -26
-151 -32 -206 -24 -204 -317 -71 -55 25 -75 24 -107 -6 l-28 -26 5 -154 c4
-148 4 -155 -17 -174 -28 -26 -32 -26 -163 5 -149 36 -161 37 -194 24 -27 -12
-57 -69 -46 -88 3 -4 19 -67 36 -140 l30 -133 -21 -25 c-22 -24 -23 -24 -179
-22 -141 3 -159 1 -177 -16 -36 -32 -31 -63 34 -207 59 -131 60 -136 46 -166
-16 -34 -22 -36 -177 -58 -138 -19 -175 -38 -178 -93 -2 -24 16 -55 86 -152
77 -107 87 -125 82 -151 -4 -16 -16 -36 -28 -43 -23 -15 -116 -47 -131 -45 -5
0 -12 -3 -15 -8 -3 -5 -25 -14 -48 -21 -60 -18 -100 -54 -101 -92 -1 -33 10
-46 161 -188 57 -53 67 -67 65 -93 -3 -36 -6 -39 -138 -120 -114 -69 -133 -85
-138 -113 -8 -44 9 -67 94 -121 46 -30 87 -55 89 -55 2 0 24 -13 47 -29 36
-24 44 -36 46 -63 2 -30 -7 -41 -85 -113 -144 -133 -152 -145 -132 -197 11
-27 32 -39 134 -77 158 -59 169 -65 178 -98 9 -31 -4 -60 -48 -110 -44 -50
-118 -168 -117 -189 0 -63 23 -78 162 -99 19 -3 49 -8 65 -12 37 -8 2463 -10
2476 -2 8 5 11 44 9 119 0 8 0 62 0 120 0 121 0 116 0 239 1 52 -3 97 -9 100
-5 4 -112 6 -236 6 -125 0 -229 4 -232 8 -10 16 -5 349 5 359 6 6 104 8 253 6
l244 -3 55 -28 c30 -16 69 -43 86 -62 53 -55 98 -146 109 -218 5 -28 15 -78
20 -97 2 -8 7 -28 10 -45 2 -16 7 -41 10 -55 3 -14 7 -37 10 -53 3 -15 12 -53
21 -85 8 -31 17 -61 18 -67 14 -57 64 -134 128 -196 l57 -55 848 0 c466 1 853
4 858 8 6 3 30 9 55 12 121 17 147 27 157 65 12 46 5 60 -74 169 -100 136 -96
127 -88 163 5 20 16 34 33 41 15 5 79 30 142 54 63 24 120 50 127 57 8 7 15
29 18 48 4 32 -1 40 -111 146 -106 103 -115 115 -112 144 4 29 15 39 120 103
64 39 125 79 135 88 38 35 23 102 -30 133 -18 10 -57 35 -87 54 -30 20 -58 34
-62 33 -5 -1 -8 1 -8 6 0 4 -16 16 -35 26 -30 16 -35 25 -35 53 0 25 8 42 28
61 15 15 63 60 106 100 84 80 101 108 86 146 -12 32 -41 50 -126 80 -180 63
-176 61 -189 100 -7 20 -9 38 -5 41 4 3 44 56 89 120 91 129 99 159 54 201
-15 14 -32 23 -40 20 -7 -3 -15 -1 -18 5 -4 5 -10 7 -13 5 -4 -2 -30 0 -57 5
-28 6 -63 12 -80 14 -93 11 -116 23 -128 66 -2 9 22 74 54 144 64 138 70 170
40 206 -19 24 -22 24 -179 22 l-159 -2 -22 25 -23 26 21 88 c12 48 23 96 26
106 2 11 8 37 13 59 11 49 2 78 -32 100 -26 18 -68 16 -144 -5 -78 -21 -164
-40 -181 -40 -10 0 -27 10 -39 23 -20 21 -21 30 -17 172 4 136 3 152 -14 175
-28 36 -78 32 -176 -14 -168 -79 -170 -79 -205 -61 -21 11 -31 25 -35 50 -6
42 -16 103 -20 130 -2 11 -7 38 -10 60 -12 76 -20 90 -55 105 -41 17 -61 8
-191 -86 l-116 -84 -37 15 c-20 8 -36 21 -36 29 0 7 -8 31 -17 52 -9 22 -17
41 -18 44 0 3 -13 40 -29 83 -30 83 -60 115 -106 111 -17 -1 -58 -36 -135
-116 -98 -102 -113 -113 -140 -110 -24 2 -37 13 -60 49 -17 26 -32 52 -35 57
-3 6 -22 37 -42 69 -21 31 -38 61 -38 65 0 10 -39 33 -64 37 -11 2 -30 -1 -42
-7z m86 -496 c42 -16 89 -72 98 -116 28 -137 -108 -247 -231 -187 -60 29 -88
70 -94 140 -4 49 -1 61 23 99 16 23 34 42 41 42 7 0 13 4 13 9 0 12 68 29 100
25 14 -1 36 -7 50 -12z m-387 -316 c29 -29 89 -92 134 -139 45 -47 97 -94 114
-103 40 -20 98 -20 136 0 15 8 93 78 173 156 140 135 146 140 180 135 110 -16
285 -71 418 -131 40 -18 73 -33 75 -33 5 0 189 -103 197 -111 3 -3 34 -25 70
-49 136 -93 270 -213 370 -331 30 -36 58 -67 61 -70 24 -18 179 -251 179 -268
0 -7 -67 -163 -110 -257 -84 -183 -92 -203 -92 -247 -1 -34 5 -57 23 -82 24
-36 32 -41 144 -91 33 -15 89 -41 125 -57 36 -16 83 -37 105 -46 85 -33 80
-20 80 -214 l0 -173 -118 -1 c-64 0 -119 -3 -121 -5 -3 -2 -7 -56 -10 -118 -4
-96 -9 -122 -31 -165 -44 -88 -118 -128 -236 -128 -67 -1 -143 24 -181 59 -16
14 -37 71 -42 113 -3 21 -15 65 -37 133 -40 126 -112 226 -232 322 -45 36 -48
40 -30 52 10 7 26 20 36 28 9 8 21 15 26 15 5 0 11 4 13 8 2 4 23 23 47 42 53
42 113 102 149 150 15 19 30 37 33 40 12 9 77 149 72 154 -3 2 -1 11 3 18 12
18 14 33 16 108 1 58 -2 89 -16 155 -7 35 -39 109 -58 137 -10 14 -18 31 -18
36 0 19 -144 164 -201 203 -104 71 -188 107 -329 145 -59 16 -160 17 -1180 19
-613 1 -1119 3 -1124 4 -9 1 130 140 185 186 166 137 274 207 447 290 134 64
353 140 433 150 18 3 34 7 37 10 14 14 38 0 85 -49z m-1588 -1193 c31 -17 71
-65 83 -99 20 -62 -7 -148 -56 -180 -15 -10 -27 -16 -28 -13 0 2 -8 -2 -17 -9
-18 -15 -71 -18 -108 -7 -67 21 -122 98 -115 160 2 17 4 38 5 47 1 22 48 76
84 99 33 19 118 20 152 2z m3962 -8 c67 -28 104 -91 97 -164 -6 -61 -39 -109
-88 -132 -116 -53 -237 20 -239 143 -2 122 116 201 230 153z m-3371 -668 l0
-652 -358 0 c-311 0 -358 2 -360 15 0 8 -2 183 -3 387 l-1 373 35 17 c20 9 38
18 41 18 28 7 303 134 325 151 32 23 53 61 59 106 4 32 -30 130 -69 200 -8 14
-15 29 -15 32 0 3 78 6 173 6 l173 0 0 -653z m1447 639 c148 -2 178 -5 217
-23 60 -27 107 -68 129 -112 16 -33 17 -52 8 -103 -10 -52 -96 -117 -177 -133
-19 -4 -175 -8 -346 -10 l-311 -2 1 191 1 191 143 0 c78 0 142 4 142 8 0 5 5
5 10 2 6 -4 88 -8 183 -9z"/>
<path d="M746 1301 c-2 -3 -3 -275 -3 -604 l0 -597 361 2 361 3 2 118 1 117
-126 1 c-70 0 -179 1 -242 2 l-115 2 0 480 0 480 -118 1 c-65 0 -119 -2 -121
-5z"/>
<path d="M1710 1236 c-1 -76 -1 -557 0 -617 l0 -36 120 0 120 0 0 361 0 361
-120 1 -120 1 0 -71z"/>
<path d="M2201 1302 c-8 -3 -11 -173 -11 -603 l0 -599 120 0 c66 0 120 3 120
8 1 4 2 221 3 482 l2 475 118 0 c73 -1 117 3 118 10 0 5 1 60 2 120 l1 110
-231 0 c-127 1 -236 -1 -242 -3z"/>
<path d="M3161 1300 c-3 -3 -7 -220 -6 -482 l0 -477 -120 0 -121 0 1 359 c0
232 -4 361 -10 363 -5 2 -59 3 -120 2 l-110 0 0 -360 0 -360 120 -5 120 -5 0
-115 0 -115 241 -3 240 -2 0 602 -1 603 -113 0 c-62 0 -117 -2 -121 -5z"/>
<path d="M3648 1299 c-12 -7 -15 -215 -4 -227 4 -4 218 -7 476 -7 258 0 472
-4 476 -8 5 -5 9 -59 9 -121 l0 -112 -353 0 c-195 1 -358 -1 -362 -4 -8 -5
-12 -80 -11 -186 l1 -51 360 0 c255 0 360 3 361 11 1 6 2 57 3 113 0 56 5 105
9 109 4 5 58 8 120 9 l112 0 0 240 0 240 -593 0 c-326 0 -598 -3 -604 -6z"/>
<path d="M3657 582 c-9 -2 -17 -9 -18 -15 0 -10 0 -139 1 -197 0 -8 0 -60 -1
-115 0 -55 0 -112 0 -128 l1 -27 603 2 602 3 0 117 c0 65 -2 118 -5 118 -3 0
-220 1 -482 1 l-478 1 -1 39 c0 21 -1 76 -2 121 l-2 81 -101 1 c-55 1 -108 0
-117 -2z"/>
<path d="M1710 220 l0 -120 120 0 120 0 0 120 0 120 -120 0 -120 0 0 -120z"/>
</g>
</svg>
