<?xml version="1.0" encoding="UTF-8" standalone="no"?>
<!-- Generator: Adobe Illustrator 24.0.0, SVG Export Plug-In . SVG Version: 6.00 Build 0)  -->

<svg
   xmlns:dc="http://purl.org/dc/elements/1.1/"
   xmlns:cc="http://creativecommons.org/ns#"
   xmlns:rdf="http://www.w3.org/1999/02/22-rdf-syntax-ns#"
   xmlns:svg="http://www.w3.org/2000/svg"
   xmlns="http://www.w3.org/2000/svg"
   xmlns:sodipodi="http://sodipodi.sourceforge.net/DTD/sodipodi-0.dtd"
   xmlns:inkscape="http://www.inkscape.org/namespaces/inkscape"
   version="1.1"
   id="Ebene_3"
   x="0px"
   y="0px"
   width="279.5"
   height="269.18201"
   viewBox="0 0 279.49999 269.18201"
   xml:space="preserve"
   inkscape:version="0.91 r13725"
   sodipodi:docname="Rust Linz 2.svg"><metadata
     id="metadata4318"><rdf:RDF><cc:Work
         rdf:about=""><dc:format>image/svg+xml</dc:format><dc:type
           rdf:resource="http://purl.org/dc/dcmitype/StillImage" /><dc:title></dc:title></cc:Work></rdf:RDF></metadata><defs
     id="defs4316" /><sodipodi:namedview
     pagecolor="#FFFFFF"
     bordercolor="#FFFFFF"
     borderopacity="1"
     objecttolerance="10"
     gridtolerance="10"
     guidetolerance="10"
     inkscape:pageopacity="0"
     inkscape:pageshadow="2"
     inkscape:window-width="1920"
     inkscape:window-height="1137"
     id="namedview4314"
     showgrid="false"
     inkscape:zoom="1.1212982"
     inkscape:cx="447.08243"
     inkscape:cy="239.69872"
     inkscape:window-x="1912"
     inkscape:window-y="-8"
     inkscape:window-maximized="1"
     inkscape:current-layer="Ebene_3" /><style
     type="text/css"
     id="style4249">
	.st0{display:none;fill:url(#SVGID_1_);}
	.st1{fill:#010101;}
	.st2{fill:url(#SVGID_2_);}
	.st3{fill:url(#SVGID_3_);}
	.st4{fill:url(#SVGID_4_);}
	.st5{fill:url(#SVGID_5_);}
	.st6{fill:url(#SVGID_6_);}
	.st7{fill:url(#SVGID_7_);}
	.st8{fill:#E23D3D;}
	.st9{fill:#F28131;}
	.st10{fill:#169AD4;}
	.st11{fill:#954094;}
	.st12{fill:#F7B732;}
	.st13{fill:#63B74D;}
</style><linearGradient
     id="SVGID_1_"
     gradientUnits="userSpaceOnUse"
     x1="420.94489"
     y1="496.06299"
     x2="420.94489"
     y2="354.33069"
     gradientTransform="translate(0,-326.11799)"><stop
       offset="0.2"
       style="stop-color:#FFFFFF"
       id="stop4252" /><stop
       offset="0.8"
       style="stop-color:#FFFFFF;stop-opacity:0"
       id="stop4254" /></linearGradient><rect
     x="350.10001"
     y="28.181999"
     class="st0"
     width="141.7"
     height="141.7"
     id="rect4256"
     style="display:none;fill:url(#SVGID_1_)" /><g
     id="g4258"
     transform="translate(-281.5,-148.89999)"><path
       class="st1"
       d="m 559,285.4 0,0 -11.8,-7.3 c -0.1,-1.1 -0.2,-2.3 -0.3,-3.4 l 10.1,-9.4 c 1,-1 1.5,-2.4 1.2,-3.7 -0.3,-1.4 -1.2,-2.5 -2.5,-3 l -12.9,-4.8 c -0.3,-1.1 -0.7,-2.2 -1,-3.3 l 8.1,-11.2 c 0.8,-1.1 1,-2.6 0.5,-3.9 -0.5,-1.3 -1.7,-2.2 -3.1,-2.4 l -13.6,-2.2 c -0.5,-1 -1.1,-2 -1.6,-3.1 l 5.7,-12.6 c 0.6,-1.3 0.5,-2.8 -0.3,-3.9 -0.8,-1.2 -2.1,-1.8 -3.5,-1.8 l -13.8,0.5 c -0.7,-0.9 -1.4,-1.8 -2.2,-2.6 l 3.2,-13.5 c 0.3,-1.4 -0.1,-2.8 -1.1,-3.8 -1,-1 -2.4,-1.4 -3.8,-1.1 l -13.5,3.2 c -0.9,-0.7 -1.8,-1.5 -2.7,-2.2 l 0.5,-13.8 c 0.1,-1.4 -0.6,-2.7 -1.8,-3.5 -1.2,-0.8 -2.6,-0.9 -3.9,-0.3 l -12.6,5.7 c -1,-0.6 -2,-1.1 -3.1,-1.6 L 477,162.8 c -0.2,-1.4 -1.1,-2.6 -2.4,-3.1 -1.3,-0.5 -2.8,-0.4 -3.9,0.5 l -11.2,8.1 c -1.1,-0.4 -2.2,-0.7 -3.3,-1 l -4.8,-12.9 c -0.5,-1.3 -1.6,-2.3 -3,-2.6 -1.4,-0.3 -2.8,0.2 -3.7,1.2 l -9.4,10.1 c -1.1,-0.1 -2.3,-0.2 -3.4,-0.3 L 424.6,151 c -0.7,-1.2 -2,-1.9 -3.4,-1.9 -1.4,0 -2.7,0.7 -3.4,1.9 l -7.3,11.8 c -1.1,0.1 -2.3,0.2 -3.4,0.3 L 397.7,153 c -1,-1 -2.4,-1.5 -3.7,-1.2 -1.4,0.3 -2.5,1.2 -3,2.6 l -4.8,12.9 c -1.1,0.3 -2.2,0.7 -3.3,1 l -11.2,-8.1 c -1.1,-0.8 -2.6,-1 -3.9,-0.5 -1.3,0.5 -2.2,1.7 -2.4,3.1 l -2.2,13.6 c -1,0.5 -2,1.1 -3.1,1.6 l -12.6,-5.7 c -1.3,-0.6 -2.8,-0.5 -3.9,0.3 -1.2,0.8 -1.8,2.1 -1.8,3.5 l 0.5,13.8 c -0.9,0.7 -1.8,1.4 -2.7,2.2 l -13.5,-3.2 c -1.4,-0.3 -2.8,0.1 -3.8,1.1 -1,1 -1.4,2.4 -1.1,3.8 l 3.2,13.5 c -0.7,0.9 -1.5,1.8 -2.2,2.6 l -13.8,-0.5 c -1.4,0 -2.7,0.6 -3.5,1.8 -0.8,1.2 -0.9,2.6 -0.3,3.9 l 5.7,12.6 c -0.6,1 -1.1,2 -1.6,3.1 l -13.6,2.2 c -1.4,0.2 -2.5,1.1 -3.1,2.4 -0.5,1.3 -0.4,2.8 0.5,3.9 l 8.1,11.2 c -0.4,1.1 -0.7,2.2 -1,3.3 l -12.9,4.8 c -1.3,0.5 -2.3,1.6 -2.5,3 -0.3,1.4 0.2,2.8 1.2,3.7 l 10.1,9.4 c -0.1,1.1 -0.2,2.3 -0.3,3.4 l -11.8,7.3 c -1.2,0.7 -1.9,2 -1.9,3.4 0,1.4 0.7,2.7 1.9,3.4 l 11.8,7.3 c 0.1,1.1 0.2,2.3 0.3,3.4 l -10.1,9.4 c -1,1 -1.5,2.4 -1.2,3.7 0.3,1.4 1.2,2.5 2.5,3 l 12.9,4.8 c 0.3,1.1 0.7,2.2 1,3.3 l -8.1,11.2 c -0.8,1.1 -1,2.6 -0.5,3.9 0.5,1.3 1.7,2.2 3.1,2.4 l 10.3,1.7 102,0 18.3,0 c 0.9,0 1.6,-0.2 1.6,-1 l 0,-27.3 c 0,-0.9 -0.6,-1 -1.6,-1 l -22.5,0 0,-18.8 21.3,0 c 2.4,0 12.9,0.7 16.3,14.1 1.1,4.1 3.4,17.5 4.9,21.8 1.1,3.4 4.6,9.2 9,12.3 l 82.4,0 10.3,-1.7 c 1.4,-0.2 2.6,-1.1 3.1,-2.4 0.5,-1.3 0.4,-2.8 -0.5,-3.9 l -8.1,-11.2 c 0.3,-1.1 0.7,-2.2 1,-3.3 l 12.9,-4.8 c 1.3,-0.5 2.3,-1.6 2.5,-3 0.3,-1.4 -0.2,-2.8 -1.2,-3.7 L 547,303 c 0.1,-1.1 0.2,-2.3 0.3,-3.4 l 11.8,-7.3 c 1.2,-0.7 1.9,-2 1.9,-3.4 -0.1,-1.5 -0.8,-2.8 -2,-3.5 z M 414.8,175.9 c 3.3,-3.2 8.6,-3.1 11.8,0.3 3.2,3.3 3,8.6 -0.3,11.8 -3.3,3.2 -8.6,3.1 -11.8,-0.3 -3.2,-3.4 -3.1,-8.6 0.3,-11.8 z m -101,84.6 c -1.9,-4.2 0,-9.1 4.2,-11 4.2,-1.9 9.1,0 11,4.2 1.9,4.2 0,9.1 -4.2,11 -4.3,1.9 -9.2,0 -11,-4.2 z m 40.9,55.5 -32.2,0 -3.9,0 0,-38.8 0.6,-0.3 c 0,0 0,0 0,0 l 10.5,-4.6 0,0 7.4,-3.3 c 3.8,-1.7 5.6,-6.2 3.9,-10 l -3.7,-8.3 17.4,0 0,65.3 z m 75.1,-45.4 -26.9,0 0,-19.3 29.4,0 c 1.8,0 12.6,2.1 12.6,10.1 0,6.7 -8.3,9.2 -15.1,9.2 z m 93.5,24.9 -0.3,0 -10.5,0 c -1.1,0 -1.5,0.7 -1.5,1.7 l 0,4.8 c 0,11.3 -6.4,13.8 -12,14.4 -5.3,0.6 -11.3,-2.2 -12,-5.5 -3.2,-17.7 -8.4,-21.5 -16.7,-28 10.3,-6.5 21,-16.2 21,-29.1 0,-13.9 -9.5,-22.7 -16.1,-27 -9.1,-6 -19.2,-7.2 -22,-7.2 l -108.5,0 c 14.7,-16.4 34.7,-28.1 57.2,-32.3 l 12.8,13.4 c 2.9,3 7.7,3.1 10.7,0.2 l 14.3,-13.7 c 30,5.6 55.4,24.3 70.1,49.9 l -9.8,22.1 c -1.7,3.8 0,8.3 3.9,10 l 18.9,8.4 c 0,0 0,0 0,0 l 0.5,0.2 0,17.7 z m 3.9,-34.6 c -1.9,4.2 -6.8,6.1 -11,4.2 -4.2,-1.9 -6.1,-6.8 -4.2,-11 1.9,-4.2 6.8,-6.1 11,-4.2 4.2,1.9 6.1,6.8 4.2,11 z"
       id="path4260"
       inkscape:connector-curvature="0"
       style="fill:#FFFFFF" /><linearGradient
       id="SVGID_2_"
       gradientUnits="userSpaceOnUse"
       x1="402.89182"
       y1="346.48251"
       x2="402.89182"
       y2="151.4613"><stop
         offset="0"
         style="stop-color:#FFFFFF;stop-opacity:0.8"
         id="stop4263" /><stop
         offset="0.8"
         style="stop-color:#FFFFFF;stop-opacity:0"
         id="stop4265" /></linearGradient><path
       class="st2"
       d="m 414.9,317 0,29.5 -7.9,0 -16.2,0 0,-126.9 24.1,0 0,31.7 -12,0 0,19.3 12,0 0,27.7 -12,0 0,18.7 0,0 12,0 z m -24,-126.9 c 3.6,-1.1 7.3,-2 11.1,-2.8 l 12.8,13.4 c 0.1,0.1 0.1,0.1 0.2,0.1 l 0,-12.8 c -0.1,-0.1 -0.3,-0.2 -0.4,-0.4 -3.2,-3.3 -3,-8.6 0.3,-11.8 0,0 0.1,-0.1 0.2,-0.1 l 0,-20.8 -4.7,7.6 c -1.1,0.1 -2.3,0.2 -3.4,0.3 l -9.4,-10.1 c -1,-1 -2.4,-1.5 -3.7,-1.2 -1.2,0.2 -2.2,1.1 -2.8,2.2 l 0,36.4 z"
       id="path4267"
       style="fill:url(#SVGID_2_)"
       inkscape:connector-curvature="0" /><linearGradient
       id="SVGID_3_"
       gradientUnits="userSpaceOnUse"
       x1="336.65079"
       y1="346.48251"
       x2="336.65079"
       y2="171.7554"><stop
         offset="0"
         style="stop-color:#FFFFFF;stop-opacity:0.8"
         id="stop4270" /><stop
         offset="0.8"
         style="stop-color:#FFFFFF;stop-opacity:0"
         id="stop4272" /></linearGradient><path
       class="st3"
       d="m 354.7,346.5 -36.1,0 0,-30.5 3.9,0 32.2,0 0,30.5 z M 324.1,207.1 c -0.7,0.9 -1.5,1.8 -2.2,2.6 l -3.3,-0.1 0,39.7 c 0,0 0,0 0,0 1.5,-0.5 3.1,-0.6 4.6,-0.3 0,0 0,0 0.1,0 0.5,0.1 0.9,0.2 1.4,0.4 0.1,0 0.2,0.1 0.2,0.1 0.4,0.2 0.7,0.4 1.1,0.6 0.2,0.1 0.3,0.2 0.4,0.3 0.3,0.2 0.5,0.4 0.8,0.6 0.2,0.2 0.4,0.4 0.6,0.7 0.1,0.2 0.3,0.3 0.4,0.5 0.3,0.4 0.6,0.9 0.8,1.4 1.9,4.2 0,9.1 -4.2,11 -0.5,0.2 -1,0.4 -1.6,0.5 -0.4,0.1 -0.8,0.1 -1.2,0.2 -0.1,0 -0.2,0 -0.3,0 -1,0 -2.1,-0.1 -3,-0.5 l 0,12.2 0.6,-0.3 c 0,0 0,0 0,0 l 10.5,-4.6 0,0 7.4,-3.3 c 2.4,-1.1 4,-3.2 4.4,-5.6 0.2,-1 0.2,-2 -0.1,-2.9 -0.1,-0.5 -0.3,-1 -0.5,-1.5 l -3.7,-8.3 0,0 0,0 17.4,0 0,-31 -10,0 c 1.5,-1.7 3,-3.2 4.6,-4.8 0.1,-0.1 0.2,-0.2 0.4,-0.4 1.6,-1.6 3.3,-3.1 5,-4.6 0,0 0,0 0,0 l 0,-34.3 -7.6,-3.5 c -1.3,-0.6 -2.8,-0.5 -3.9,0.3 -0.9,0.6 -1.5,1.5 -1.7,2.5 -0.1,0.3 -0.1,0.7 -0.1,1 l 0.2,6.9 0.2,6.9 0,0 0,0 c -0.9,0.7 -1.8,1.4 -2.7,2.2 l -13.5,-3.2 c -0.3,-0.1 -0.7,-0.1 -1,-0.1 -1,0 -2,0.4 -2.8,1.2 -0.2,0.2 -0.5,0.5 -0.6,0.8 -0.3,0.6 -0.5,1.3 -0.6,1.9 0,0.3 0,0.7 0.1,1 l 3.4,13.8 z"
       id="path4274"
       style="fill:url(#SVGID_3_)"
       inkscape:connector-curvature="0" /><linearGradient
       id="SVGID_4_"
       gradientUnits="userSpaceOnUse"
       x1="372.78519"
       y1="346.48251"
       x2="372.78519"
       y2="159.1938"><stop
         offset="0"
         style="stop-color:#FFFFFF;stop-opacity:0.8"
         id="stop4277" /><stop
         offset="0.8"
         style="stop-color:#FFFFFF;stop-opacity:0"
         id="stop4279" /></linearGradient><path
       class="st4"
       d="m 366.8,159.9 c 0.2,-0.1 0.4,-0.3 0.6,-0.4 1.3,-0.5 2.8,-0.4 3.9,0.5 l 7.5,5.4 0,29.3 c -4.2,1.9 -8.2,4 -12,6.4 l 0,-41.2 z m 0,186.6 12,0 0,-126.9 -12,0 0,126.9 z"
       id="path4281"
       style="fill:url(#SVGID_4_)"
       inkscape:connector-curvature="0" /><linearGradient
       id="SVGID_5_"
       gradientUnits="userSpaceOnUse"
       x1="493.20349"
       y1="346.48251"
       x2="493.20349"
       y2="159.19569"><stop
         offset="0"
         style="stop-color:#FFFFFF;stop-opacity:0.8"
         id="stop4284" /><stop
         offset="0.8"
         style="stop-color:#FFFFFF;stop-opacity:0"
         id="stop4286" /></linearGradient><path
       class="st5"
       d="m 523.3,346.5 -60.2,0 0,-125.2 c 0.9,0.3 1.8,0.6 2.8,0.9 0.1,0 0.2,0.1 0.3,0.1 0.9,0.3 1.8,0.7 2.8,1.1 0.1,0.1 0.3,0.1 0.4,0.2 0.9,0.4 1.9,0.9 2.8,1.4 0.1,0.1 0.2,0.1 0.3,0.2 1,0.5 1.9,1.1 2.9,1.7 6.5,4.3 16.1,13.1 16.1,27 0,12.9 -10.7,22.5 -21,29.1 1,0.8 2,1.6 3,2.4 1.4,1.1 2.7,2.3 3.9,3.5 2,2 3.8,4.3 5.3,7.3 0.6,1.2 1.2,2.5 1.7,4 1.1,2.9 2,6.5 2.8,10.9 0.2,0.8 0.7,1.6 1.4,2.3 0.2,0.2 0.4,0.4 0.6,0.5 0.6,0.5 1.4,1 2.2,1.4 0.6,0.3 1.2,0.5 1.8,0.7 0.6,0.2 1.3,0.4 1.9,0.5 1.3,0.2 2.7,0.3 4,0.1 5.6,-0.6 12,-3.1 12,-14.4 l 0,-4.8 c 0,-0.3 0,-0.5 0.1,-0.7 0.2,-0.6 0.6,-1 1.4,-1 l 10.4,0 0.3,0 0,50.8 z M 463.1,194.7 c 0,0 0,0 0,0 3.6,1.6 7.1,3.5 10.4,5.5 0.2,0.1 0.3,0.2 0.5,0.3 3.1,1.9 6.2,4 9.1,6.2 0.3,0.2 0.5,0.4 0.8,0.6 0.8,0.6 1.6,1.3 2.4,1.9 0.4,0.4 0.9,0.7 1.3,1.1 0.7,0.6 1.4,1.2 2.1,1.9 0.9,0.8 1.8,1.6 2.6,2.5 0.6,0.6 1.3,1.3 1.9,1.9 0.6,0.7 1.3,1.3 1.9,2 0.5,0.5 1,1 1.4,1.6 0.7,0.8 1.4,1.6 2.1,2.5 0.3,0.4 0.7,0.8 1,1.2 1,1.2 1.9,2.5 2.9,3.7 0.3,0.4 0.6,0.8 0.8,1.2 0.7,1 1.4,2 2.1,3 0.3,0.4 0.5,0.8 0.8,1.2 0.9,1.4 1.7,2.8 2.6,4.2 l -9.8,22.1 c -0.2,0.5 -0.4,1 -0.5,1.5 -0.8,3.4 1,7.1 4.3,8.6 l 18.9,8.4 c 0,0 0,0 0,0 l 0.5,0.2 0,-13 0,0 c -0.5,0.3 -1.1,0.5 -1.6,0.6 0,0 0,0 -0.1,0 -0.5,0.1 -1,0.2 -1.6,0.2 -0.1,0 -0.2,0 -0.2,0 -0.5,0 -1,0 -1.4,-0.1 -0.1,0 -0.2,0 -0.4,0 -0.6,-0.1 -1.2,-0.3 -1.7,-0.5 -2.1,-0.9 -3.6,-2.6 -4.4,-4.6 -0.4,-1 -0.6,-2.1 -0.6,-3.1 0,-1.1 0.2,-2.2 0.7,-3.2 1.2,-2.7 3.6,-4.4 6.3,-4.8 1.5,-0.3 3.2,-0.1 4.7,0.6 0.1,0 0.2,0.1 0.3,0.2 l 0,-40.5 -3.3,0.1 0,0 0,0 c -0.7,-0.9 -1.4,-1.8 -2.2,-2.6 l 3.2,-13.5 c 0.3,-1.4 -0.1,-2.8 -1.1,-3.8 -0.7,-0.7 -1.7,-1.2 -2.8,-1.2 -0.3,0 -0.7,0 -1,0.1 l -13.5,3.2 c -0.9,-0.7 -1.8,-1.5 -2.7,-2.2 l 0,0 0,0 0.2,-6.9 0.2,-6.9 c 0,-0.8 -0.2,-1.6 -0.6,-2.3 -0.3,-0.5 -0.7,-0.9 -1.2,-1.3 -0.3,-0.2 -0.6,-0.3 -0.9,-0.5 -1,-0.3 -2,-0.3 -3,0.1 l -12.6,5.7 c -1,-0.6 -2,-1.1 -3.1,-1.6 l -2.2,-13.6 c -0.2,-1 -0.7,-2 -1.5,-2.6 -0.3,-0.2 -0.6,-0.4 -0.9,-0.5 -0.6,-0.3 -1.3,-0.4 -2,-0.3 -0.7,0.1 -1.3,0.3 -1.9,0.7 l -7.5,5.4 0,29.4 z"
       id="path4288"
       style="fill:url(#SVGID_5_)"
       inkscape:connector-curvature="0" /><linearGradient
       id="SVGID_6_"
       gradientUnits="userSpaceOnUse"
       x1="420.94351"
       y1="346.4826"
       x2="420.94351"
       y2="148.85001"><stop
         offset="0"
         style="stop-color:#FFFFFF;stop-opacity:0.8"
         id="stop4291" /><stop
         offset="0.8"
         style="stop-color:#FFFFFF;stop-opacity:0"
         id="stop4293" /></linearGradient><path
       class="st6"
       d="m 414.9,219.6 12,0 0,31.7 -12,0 0,-31.7 z m 10.5,97.4 -10.5,0 0,29.5 10.5,0 c 0.9,0 1.6,-0.2 1.6,-1 l 0,-27.5 c 0,-0.8 -0.7,-1 -1.6,-1 z M 414.9,175.8 c 3.3,-3 8.5,-2.9 11.6,0.4 0.2,0.2 0.3,0.4 0.4,0.6 l 0,-21.8 -2.6,-4.2 c -0.7,-1.2 -2,-1.9 -3.4,-1.9 -1.4,0 -2.7,0.7 -3.4,1.9 l -2.6,4.2 0,20.8 z m 11.3,12.1 c -3.2,3 -8.1,3 -11.3,0.1 l 0,12.9 c 2.9,2.9 7.6,3 10.6,0.1 l 1.5,-1.4 0,-12.5 c -0.3,0.3 -0.5,0.6 -0.8,0.8 z m -11.3,82.7 0,27.7 9.3,0 c 0.6,0 1.5,0 2.7,0.3 l 0,-28 -12,0 z"
       id="path4295"
       style="fill:url(#SVGID_6_)"
       inkscape:connector-curvature="0" /><linearGradient
       id="SVGID_7_"
       gradientUnits="userSpaceOnUse"
       x1="438.99811"
       y1="343.42709"
       x2="438.99811"
       y2="151.4613"><stop
         offset="0"
         style="stop-color:#FFFFFF;stop-opacity:0.8"
         id="stop4298" /><stop
         offset="0.8"
         style="stop-color:#FFFFFF  ;stop-opacity:0"
         id="stop4300" /></linearGradient><path
       class="st7"
       d="m 451,219.6 0,123.8 c -2.7,-3 -4.8,-6.8 -5.6,-9.2 -1.6,-4.3 -3.9,-17.7 -4.9,-21.8 -2.6,-10.4 -9.4,-13.1 -13.5,-13.8 l 0,-28 2.8,0 c 6.8,0 15.1,-2.4 15.1,-9.1 0,-8.1 -10.8,-10.1 -12.6,-10.1 l -5.3,0 0,-31.7 24,0 z m -24,-42.9 c 2.4,3 2.4,7.3 0,10.4 l 0,12.5 12.8,-12.3 c 3.8,0.7 7.6,1.6 11.2,2.8 l 0,-36.4 c -0.6,-1.1 -1.6,-1.9 -2.8,-2.1 -1.4,-0.3 -2.8,0.2 -3.7,1.2 l -9.4,10.1 c -1.1,-0.1 -2.3,-0.2 -3.4,-0.3 l -4.7,-7.6 0,21.7 z"
       id="path4302"
       style="fill:url(#SVGID_7_)"
       inkscape:connector-curvature="0" /><g
       id="g853_8_"
       transform="matrix(0.04196843,0,0,0.04196843,79.324221,78.087349)"><polygon
         id="polygon835_8_"
         class="st8"
         points="7423.1,8100.6 7709.9,8100.6 7709.9,6953.5 7996.6,6953.5 7996.6,6666.7 7423.1,6666.7 7423.1,6953.5 "
         style="fill:#FFFFFF" /><rect
         id="rect837_8_"
         x="7996.6001"
         y="6952.7998"
         class="st9"
         width="286.79999"
         height="861.09998"
         style="fill:#FFFFFF" /><polygon
         id="polygon839_8_"
         class="st10"
         points="6562,8100.6 6562,7813.9 5988.5,7813.9 5988.5,6666.7 5701,6666.7 5701,7813.9 5701,8100.6 5988.5,8100.6 "
         style="fill:#FFFFFF" /><rect
         id="rect841_8_"
         x="6849.1001"
         y="6665.7998"
         class="st11"
         width="286.79999"
         height="861.09998"
         style="fill:#FFFFFF" /><rect
         id="rect843_8_"
         x="6849.1001"
         y="7814.3999"
         class="st11"
         width="286.79999"
         height="286.79999"
         style="fill:#FFFFFF" /><polygon
         id="polygon845_8_"
         class="st12"
         points="8857,7813.9 8857,6666.7 8570.2,6666.7 8570.2,7813.9 8283.4,7813.9 8283.4,8100.6 8570.2,8100.6 8857,8100.6 "
         style="fill:#FFFFFF" /><polygon
         id="polygon847_8_"
         class="st13"
         points="10291.6,6953.5 10291.6,7240.3 10579.1,7240.3 10579.1,6666.7 10291.6,6666.7 9144.5,6666.7 9144.5,6953.5 "
         style="fill:#FFFFFF" /><rect
         id="rect849_8_"
         x="9431.4004"
         y="7240.3999"
         class="st13"
         width="861.09998"
         height="286.79999"
         style="fill:#FFFFFF" /><polygon
         id="polygon851_8_"
         class="st13"
         points="10579.1,8100.6 10579.1,7813.9 9431.3,7813.9 9431.3,7527.1 9144.5,7527.1 9144.5,7813.9 9144.5,8100.6 9431.3,8100.6 "
         style="fill:#FFFFFF" /></g></g></svg>